<svg version="1.0" xmlns="http://www.w3.org/2000/svg"
     width="150.000000pt" height="150.000000pt" viewBox="0 0 150.000000 150.000000"
     preserveAspectRatio="xMidYMid meet">

    <g transform="translate(0.000000,150.000000) scale(0.100000,-0.100000)"
       fill="#000000" stroke="none">
        <path d="M0 750 l0 -750 750 0 750 0 0 750 0 750 -750 0 -750 0 0 -750z m895
388 c96 -50 159 -141 172 -248 l6 -50 -62 0 c-51 0 -61 3 -61 18 0 73 -55 151
-125 178 -124 47 -246 -30 -265 -166 -5 -33 -17 -72 -28 -87 -19 -27 -19 -27
0 -53 11 -15 23 -51 27 -81 13 -94 61 -156 140 -180 105 -31 225 41 243 146 6
37 -29 29 -42 -9 -14 -45 -69 -93 -116 -102 -68 -13 -152 32 -175 93 -5 13 -9
85 -9 160 0 151 10 188 63 225 46 33 123 36 166 6 46 -31 70 -66 78 -111 5
-33 3 -37 -16 -37 -13 0 -21 6 -21 16 0 30 -30 80 -59 97 -36 21 -73 22 -111
2 -50 -26 -60 -59 -60 -202 0 -109 3 -133 19 -159 22 -37 78 -59 119 -49 42
10 82 54 88 97 l7 38 60 0 60 0 -6 -49 c-7 -61 -25 -97 -69 -140 -46 -46 -82
-62 -148 -68 -63 -6 -121 14 -176 60 -38 32 -74 105 -74 149 0 45 -20 80 -53
96 -28 14 -38 52 -13 52 34 0 57 35 66 99 10 71 41 126 92 164 132 98 326 33
368 -125 8 -28 16 -38 30 -38 24 0 24 -5 4 59 -18 62 -78 132 -138 163 -59 30
-152 35 -217 12 -95 -34 -179 -142 -179 -231 0 -16 -6 -23 -20 -23 -25 0 -27
38 -5 101 31 88 103 160 192 194 61 23 186 14 248 -17z m172 -514 c-17 -169
-163 -292 -332 -282 -89 6 -156 39 -218 108 -69 76 -105 210 -57 210 16 0 20
-7 20 -33 0 -48 54 -150 96 -182 120 -92 266 -84 370 19 53 54 84 122 84 188
0 22 5 28 21 28 20 0 21 -4 16 -56z"/>
    </g>
</svg>
